<svg width="520" height="160" viewBox="0 0 520 160" fill="none" xmlns="http://www.w3.org/2000/svg">
  <rect width="520" height="160" rx="36" fill="#0F172A"/>
  <rect x="10" y="10" width="500" height="140" rx="30" fill="url(#backGlow)" fill-opacity="0.18"/>

  <g transform="translate(22 18)">
    <circle cx="62" cy="62" r="46" fill="#111827" stroke="url(#ringStroke)" stroke-width="2"/>
    <circle cx="62" cy="62" r="34" fill="url(#innerCore)"/>

    <path d="M35 78L55 58L69 68L91 42" stroke="url(#trendLine)" stroke-width="8" stroke-linecap="round" stroke-linejoin="round"/>
    <path d="M80 42H91V53" stroke="#D1D5DB" stroke-width="8" stroke-linecap="round" stroke-linejoin="round"/>

    <circle cx="35" cy="78" r="5.5" fill="#94A3B8"/>
    <circle cx="55" cy="58" r="5.5" fill="#60A5FA"/>
    <circle cx="69" cy="68" r="5.5" fill="#3B82F6"/>
    <circle cx="91" cy="42" r="6.5" fill="#64748B"/>
  </g>

  <g transform="translate(150 42)">
    <text x="0" y="38" fill="#E2E8F0" font-family="Segoe UI, Arial, sans-serif" font-size="34" font-weight="800" letter-spacing="0.08em">CAREER</text>
    <text x="242" y="38" fill="#94A3B8" font-family="Segoe UI, Arial, sans-serif" font-size="34" font-weight="600" letter-spacing="0.04em">AI</text>
    <text x="0" y="76" fill="#CBD5E1" font-family="Segoe UI, Arial, sans-serif" font-size="15" font-weight="500">AI-Powered Career Intelligence &amp; Growth</text>
  </g>

  <defs>
    <radialGradient id="backGlow" cx="0" cy="0" r="1" gradientUnits="userSpaceOnUse" gradientTransform="translate(64 40) rotate(43.3) scale(380)">
      <stop stop-color="#94A3B8"/>
      <stop offset="1" stop-color="#60A5FA" stop-opacity="0"/>
    </radialGradient>
    <linearGradient id="ringStroke" x1="18" y1="18" x2="108" y2="108" gradientUnits="userSpaceOnUse">
      <stop stop-color="#94A3B8" stop-opacity="0.65"/>
      <stop offset="1" stop-color="#3B82F6" stop-opacity="0.22"/>
    </linearGradient>
    <radialGradient id="innerCore" cx="0" cy="0" r="1" gradientUnits="userSpaceOnUse" gradientTransform="translate(58 54) rotate(50) scale(60)">
      <stop stop-color="#111827"/>
      <stop offset="1" stop-color="#0F172A"/>
    </radialGradient>
    <linearGradient id="trendLine" x1="35" y1="78" x2="91" y2="42" gradientUnits="userSpaceOnUse">
      <stop stop-color="#94A3B8"/>
      <stop offset="1" stop-color="#60A5FA"/>
    </linearGradient>
  </defs>
</svg>
